<?xml version="1.0" encoding="utf-8"?>
<!-- Generator: Adobe Illustrator 22.1.0, SVG Export Plug-In . SVG Version: 6.00 Build 0)  -->
<svg version="1.1" id="katman_1" xmlns="http://www.w3.org/2000/svg" xmlns:xlink="http://www.w3.org/1999/xlink" x="0px" y="0px"
	 viewBox="0 0 600 450" style="enable-background:new 0 0 600 450;" xml:space="preserve">
<style type="text/css">
	.st0{fill:none;stroke:url(#SVGID_1_);stroke-width:3;stroke-miterlimit:10;}
	.st1{fill:#922439;}
	.st2{fill:#FFFFFF;}
</style>
<g>
	<linearGradient id="SVGID_1_" gradientUnits="userSpaceOnUse" x1="301.506" y1="261.5449" x2="301.506" y2="187.5488">
		<stop  offset="0" style="stop-color:#FFFFFF"/>
		<stop  offset="1" style="stop-color:#8A7334"/>
	</linearGradient>
	<path class="st0" d="M342.7,195.1l-38,63c-1.6,2.6-5.3,2.6-6.9,0l-37.4-62.8c-1.6-2.7,0.3-6,3.4-6l75.5-0.2
		C342.4,189,344.3,192.4,342.7,195.1z"/>
	<path class="st1" d="M299.6,170.8c-26.3-1.9-41,2.8-43.7,3.3v7.4c7.7-1.7,21.3-4.1,40.7-4.7l0,0h0.1l0,0
		c26.6-0.5,42.9,2.6,47.5,3.7c0-0.1,0,0.1,0,0C344,180.5,328.7,173.3,299.6,170.8z"/>
	<path class="st1" d="M333.9,243.1c-11.3,13.7-26.9,23.6-33.3,26.4l0,0l0,0l0,0c-9.6-4.4-32.5-20.2-42.9-50.8
		c-0.2-0.9-0.5-1.7-0.7-2.6c0.2,1.1,0.3,2.3,0.5,3.4v-0.1c0.4,1.9,0.8,3.9,1.2,5.8c9.6,32.8,33,49.8,41.8,54.5
		C307.3,276.1,322.7,262.9,333.9,243.1z"/>
	<g>
		<g>
			<g>
				<path class="st1" d="M289,260c-1.3,0-2.4-0.6-3.2-1.7c-0.9-1.2-1-2.6-0.4-4c0.1-0.3,0.3-0.5,0.4-0.8l22.1-38.3
					c0.1-0.1,0.1-0.3,0.2-0.4c-1.8-2-2.8-3.9-3.1-6.2c-0.3-2.1,0.1-3.9,1.1-5.5c3.3-5,6.6-10,9.9-15l5-7.6c0.2-0.3,0.8-1.2,1.7-1.2
					c0.3,0,0.6,0.1,1,0.3c1,0.6,1.1,1.6,0.3,2.8c-4.2,6.8-8.4,13.6-12.6,20.3l-0.1,0.2c-0.2,0.2-0.4,0.6-0.4,0.8
					c0,0.5,0.2,1,0.4,1.2c0.1,0.1,0.1,0.1,0.2,0.1c0.2,0,0.4-0.1,0.6-0.3c0.3-0.2,0.5-0.6,0.7-0.9c3.3-5.3,6.7-10.7,10-16l2.6-4.2
					c0-0.1,0.1-0.1,0.1-0.2c0.1-0.3,0.3-0.6,0.7-0.8c0.5-0.3,1-0.4,1.3-0.4c0.2,0,0.5,0.1,0.6,0.2c0.7,0.4,0.8,1.4,0.8,1.9
					c0,0.5-0.3,0.8-0.5,1.1c-0.1,0.1-0.1,0.2-0.2,0.2c0,0-9,15.5-11.7,20.2c-0.3,0.4-0.5,0.8-0.5,1.1c-0.2,0.7,0.2,0.9,0.3,1
					c0.1,0.1,0.3,0.1,0.4,0.1c0.3,0,0.5-0.2,0.6-0.3c0.2-0.2,0.4-0.6,0.7-0.9c2.8-4.8,5.6-9.7,8.4-14.5l3.4-5.9
					c0-0.1,0.1-0.1,0.1-0.2c0.2-0.3,0.4-0.7,0.8-0.9c0.3-0.2,0.8-0.4,1.3-0.4c0.3,0,0.5,0.1,0.7,0.2c0.6,0.4,0.8,1.3,0.9,1.8
					c0,0.5-0.2,0.8-0.4,1.1c0,0.1-0.1,0.1-0.1,0.2l-2.6,4.9c-2.9,5.4-5.7,10.7-8.6,16.1c-0.2,0.4-0.5,0.9-0.4,1.1
					c0,0.3,0.2,0.7,0.3,0.8l0,0c0,0,0.1,0,0.2,0c0.2,0,0.6-0.1,0.8-0.2c0.2-0.1,0.4-0.6,0.6-0.8c2.8-5.2,5.6-10.4,8.3-15.6l2.9-5.4
					c0-0.1,0.1-0.1,0.1-0.2c0.1-0.3,0.3-0.7,0.7-0.9c0.2-0.1,0.8-0.4,1.3-0.4c0.2,0,0.4,0.1,0.6,0.2c0.6,0.4,0.8,1.3,0.9,1.7
					c0.1,0.5-0.2,0.8-0.3,1.1c0,0.1-0.1,0.1-0.1,0.2l-3.4,6.9c-2.7,5.5-5.5,11-8.2,16.5c-1.5,3-3.9,4.6-7.3,4.9c-0.3,0-0.6,0-0.9,0
					c-0.7,0-1.4-0.1-2.2-0.1c-0.3,0-0.7-0.1-1.1-0.1c-0.1,0.1-0.1,0.2-0.2,0.4l-3.2,5.5c-6.3,10.9-12.6,21.7-18.8,32.6
					c-0.6,1-1.5,2.2-3.2,2.5C289.4,260,289.2,260,289,260z"/>
				<path class="st2" d="M322.9,180.2c0.2,0,0.3,0.1,0.6,0.2c0.8,0.5,0.5,1.2,0.1,1.8c-4.2,6.8-8.4,13.6-12.6,20.3
					c-0.3,0.4-0.6,0.9-0.6,1.4c0,0.6,0.3,1.3,0.7,1.7c0.2,0.2,0.5,0.3,0.7,0.3c0.4,0,0.8-0.2,1.1-0.5c0.3-0.3,0.6-0.7,0.8-1.1
					c4.2-6.7,8.4-13.5,12.7-20.2c0.2-0.2,0.3-0.6,0.5-0.7c0.3-0.1,0.7-0.3,1-0.3c0.1,0,0.2,0,0.3,0.1c0.3,0.2,0.4,0.8,0.4,1.2
					c0,0.3-0.3,0.7-0.5,1c-3.9,6.7-7.8,13.5-11.7,20.2c-0.2,0.4-0.5,0.9-0.6,1.3c-0.2,0.7,0,1.4,0.7,1.8c0.3,0.2,0.5,0.2,0.8,0.2
					c0.4,0,0.8-0.2,1.2-0.5c0.3-0.3,0.6-0.7,0.8-1.1c4-6.8,7.9-13.6,11.9-20.5c0.2-0.3,0.3-0.7,0.6-0.9c0.2-0.1,0.6-0.3,0.9-0.3
					c0.1,0,0.2,0,0.3,0.1c0.3,0.2,0.5,0.7,0.5,1.1c0,0.3-0.3,0.6-0.4,1c-3.7,7-7.4,14-11.2,21c-0.3,0.5-0.6,1-0.5,1.5
					c0,0.5,0.3,1.2,0.7,1.4c0.2,0.1,0.4,0.1,0.6,0.1c0.4,0,0.8-0.1,1.1-0.3c0.4-0.2,0.7-0.8,0.9-1.2c3.7-7,7.5-14,11.2-20.9
					c0.2-0.3,0.3-0.7,0.5-0.8c0.3-0.2,0.7-0.3,1-0.3c0.1,0,0.2,0,0.2,0.1c0.3,0.2,0.5,0.8,0.5,1.2c0,0.3-0.2,0.6-0.4,0.9
					c-3.9,7.8-7.8,15.6-11.6,23.4c-1.4,2.8-3.7,4.2-6.7,4.5c-0.3,0-0.6,0-0.9,0c-1.1,0-2.3-0.1-3.6-0.2c-0.1,0.1-0.3,0.4-0.5,0.8
					c-7.3,12.7-14.7,25.4-22,38.2c-0.6,1.1-1.4,1.9-2.7,2.1c-0.2,0-0.3,0-0.5,0c-1,0-1.9-0.5-2.6-1.4c-0.7-1-0.8-2.1-0.3-3.3
					c0.1-0.3,0.3-0.6,0.5-0.9c7.3-12.7,14.7-25.4,22-38.1c0.2-0.3,0.3-0.6,0.5-0.9c-1.7-1.8-2.9-3.7-3.3-6.1c-0.3-1.8,0-3.5,1-5
					c5-7.5,10-15.1,15-22.6C322.1,180.6,322.4,180.2,322.9,180.2 M322.9,178.7c-1.3,0-2,1.1-2.3,1.5c-1.8,2.6-3.5,5.3-5.3,7.9
					c-3.2,4.9-6.5,9.8-9.7,14.7c-1.2,1.8-1.6,3.8-1.2,6c0.3,2.2,1.3,4.2,3,6.1l-14,24.3l-7.9,13.7l-0.1,0.2
					c-0.2,0.3-0.3,0.5-0.5,0.9c-0.7,1.7-0.6,3.3,0.4,4.7c0.9,1.3,2.2,2,3.8,2c0.2,0,0.5,0,0.7,0c2.1-0.3,3.1-1.8,3.8-2.8
					c6.3-10.9,12.6-21.9,18.9-32.8l3.1-5.3c0.2,0,0.4,0,0.6,0c0.8,0.1,1.5,0.1,2.2,0.1c0.3,0,0.7,0,1,0c3.6-0.3,6.3-2.1,7.9-5.3
					c2.7-5.5,5.5-11.1,8.2-16.5c1.1-2.3,2.3-4.6,3.4-6.9c0,0,0.1-0.1,0.1-0.1c0.2-0.3,0.5-0.9,0.5-1.6c-0.1-0.6-0.3-1.7-1.2-2.3
					c-0.3-0.2-0.6-0.3-1-0.3c-0.7,0-1.4,0.4-1.7,0.5c-0.6,0.3-0.8,0.9-1,1.3c0,0.1,0,0.1-0.1,0.2l-2.8,5.3
					c-2.8,5.2-5.6,10.4-8.4,15.6c-0.1,0.2-0.3,0.5-0.4,0.6c-0.1,0-0.1,0-0.2,0.1c0,0,0-0.1,0-0.1c0-0.1,0.2-0.5,0.3-0.7l0,0
					c2.8-5.2,5.5-10.4,8.3-15.6l2.9-5.4c0-0.1,0.1-0.1,0.1-0.2c0.2-0.3,0.5-0.9,0.5-1.6c0-0.3-0.1-1.8-1.2-2.4
					c-0.3-0.2-0.7-0.3-1-0.3c-0.8,0-1.5,0.4-1.6,0.5c-0.6,0.3-0.9,0.9-1.1,1.3c0,0.1-0.1,0.1-0.1,0.2l-3.9,6.7
					c-2.7,4.6-5.3,9.2-8,13.7c-0.1,0.3-0.3,0.6-0.5,0.8c-0.1,0.1-0.1,0.1-0.1,0.1c0,0,0,0,0,0c0,0,0,0,0,0c0,0,0-0.1,0-0.1
					c0.1-0.2,0.2-0.6,0.4-0.9l0-0.1c2.9-5,5.7-9.9,8.6-14.9l3.1-5.4c0-0.1,0.1-0.1,0.1-0.2c0.2-0.3,0.6-0.8,0.6-1.5
					c0-0.2,0-1.9-1.2-2.6c-0.3-0.2-0.6-0.3-1-0.3c-0.5,0-1,0.1-1.7,0.4c-0.6,0.3-0.9,0.9-1.1,1.2c0,0,0,0.1-0.1,0.1l-3,4.7
					c-3.2,5.2-6.5,10.3-9.7,15.5c-0.2,0.3-0.4,0.6-0.5,0.7c0-0.1-0.1-0.2-0.1-0.3c0.1-0.1,0.2-0.3,0.3-0.5l0.1-0.2
					c4.2-6.8,8.4-13.6,12.6-20.3c1.4-2.3,0.1-3.4-0.6-3.8C323.8,178.8,323.3,178.7,322.9,178.7L322.9,178.7z"/>
			</g>
			<g>
				<path class="st1" d="M293.3,231l-5.4,3.1l-0.5-0.9c-4.7-8.2-10-17.9-13.9-28.5c-1.4-3.7-3-8.6-3.4-14c-0.2-2.7,0-4.9,0.8-6.8
					c0.7-1.9,1.8-3.1,3.5-3.8l0.6-0.2l0.5,0.9c0.1,0.2,0.3,0.4,0.4,0.7l5.2,9.7c6.3,11.7,12.6,23.5,18.8,35.2c0.5,0.9,0.5,1.6,0,2.4
					c-0.6,1-1.3,2.1-1.8,3.2c-0.3,0.5-0.6,1-0.9,1.5c-0.1,0.2-0.2,0.4-0.4,0.6l-0.9,1.3L293.3,231z"/>
				<path class="st2" d="M274.6,180.9c0.2,0.3,0.4,0.6,0.5,0.9c8,15,16,29.9,24,44.9c0.3,0.6,0.4,1.1,0,1.7
					c-0.9,1.5-1.8,3.1-2.7,4.7c-0.2,0.3-0.3,0.5-0.6,0.9c-0.8-1.4-1.5-2.6-2.3-3.9c-1.8,1-3.6,2.1-5.4,3.1c-0.1-0.1-0.1-0.2-0.1-0.3
					c-5.2-9.1-10.2-18.4-13.8-28.3c-1.6-4.5-3-9-3.4-13.8c-0.2-2.2-0.1-4.4,0.7-6.5C272.1,182.8,273,181.6,274.6,180.9 M275.3,179
					l-1.2,0.5c-1.8,0.7-3.1,2.1-3.9,4.2c-0.8,2-1,4.3-0.8,7.1c0.4,5.4,2.1,10.4,3.4,14.2c3.9,10.6,9.2,20.4,13.9,28.6
					c0,0,0,0.1,0.1,0.1l0.1,0.1l0.7,1.4l1.3-0.8l4.1-2.4l1.5,2.7l1.2,2.1l1.3-2l0.2-0.3c0.2-0.2,0.3-0.4,0.4-0.6
					c0.3-0.5,0.6-1,0.9-1.5c0.6-1,1.2-2.1,1.8-3.1c0.7-1.1,0.7-2.1,0.1-3.2c-6.3-11.8-12.6-23.6-18.9-35.3l-5.1-9.6
					c-0.1-0.2-0.3-0.5-0.4-0.7l-0.2-0.3L275.3,179L275.3,179z"/>
			</g>
			<g>
				<path class="st1" d="M312.3,260c-1.4,0-2.6-0.7-3.3-1.8c-2.6-4.4-5.1-8.8-7.7-13.2c-0.3-0.4-0.3-1.1,0-1.5
					c0.9-1.6,1.8-3.1,2.7-4.7l1.4-2.4l0.9,1.3c0.1,0.2,0.2,0.4,0.3,0.5l1.9,3.3c2.3,4,4.7,8.1,7,12.2c0.5,0.8,0.7,1.9,0.7,2.8
					c0,1.6-1.3,3-3,3.5C312.9,260,312.6,260,312.3,260z"/>
				<path class="st2" d="M305.5,237.7c0.2,0.3,0.4,0.6,0.5,0.8c3,5.1,6,10.3,8.9,15.5c0.4,0.7,0.6,1.6,0.6,2.4
					c0,1.3-1.1,2.4-2.4,2.8c-0.3,0.1-0.5,0.1-0.8,0.1c-1,0-2.1-0.5-2.6-1.5c-2.6-4.4-5.1-8.8-7.7-13.2c-0.1-0.2-0.1-0.6,0-0.8
					C303.1,241.8,304.3,239.8,305.5,237.7 M305.4,234.9l-1.2,2.1l-0.8,1.4c-0.9,1.6-1.8,3.1-2.7,4.7c-0.4,0.7-0.4,1.6,0,2.3
					c2.6,4.5,5.1,8.9,7.7,13.2c0.8,1.4,2.3,2.2,3.9,2.2c0.4,0,0.8,0,1.1-0.1c2.1-0.5,3.5-2.2,3.6-4.2c0-1-0.3-2.2-0.8-3.2
					c-2.3-4-4.7-8.1-6.9-12.1l-2-3.4c-0.1-0.2-0.2-0.4-0.4-0.6l-0.2-0.3L305.4,234.9L305.4,234.9z"/>
			</g>
		</g>
	</g>
</g>
</svg>
